<svg xmlns="http://www.w3.org/2000/svg" width="685.494" height="696.919" viewBox="0 0 685.494 696.919">
  <g id="손그림" transform="matrix(0.848, 0.53, -0.53, 0.848, 233.686, -22.378)">
    <path id="_손1" d="M97.876,31.97S73.291,72.39,131.92,94.708l109.817,71.454-9.581,36.726v73.76l-10.969,5.3-41.988-31.4s-59.763-27.99-74.894,0c0,0-15.131,20.046,2.272,29.505s40.092,25.767,40.092,25.767l20.8,27.189,99.86,88.891,234.14,108.18,80-145.625-176.4-67.287L314.613,118.927l-66.573-9.454L232.151,84.507Z" transform="translate(-47.005 -15.875)"/>
    <path id="_손1-2" d="M92.2.93S67.611,41.35,126.24,63.668l53.333,28.748,46.9,79.433v73.76l-10.969,5.3-41.988-31.4s-59.763-27.99-74.894,0c0,0-15.131,20.046,2.272,29.505s40.093,25.767,40.093,25.767l20.8,27.189,99.86,88.891,234.14,108.18,80-145.625L399.4,286.131,308.933,87.887l-66.573-9.454L226.471,53.467Z" transform="translate(-44.101)" fill="#ffe3e2" stroke="#000" stroke-width="1.5"/>
    <line id="_선2" x1="41.231" y1="62.411" transform="translate(198.747 78.907)" fill="none" stroke="#000" stroke-width="1.5"/>
    <path id="_손2" d="M179.773,229.967l-88.188-20.7C35.35,241.4,25.53,191.017,25.53,191.017L83.548,165.46l34.552,3.22,37.376,20.144,24.292,41.143Z" transform="translate(-12.622 -84.145)"/>
    <path id="_손2-2" d="M160.639,205.457,69.275,184.019C11.027,217.305.85,165.106.85,165.106l60.1-26.476,35.793,3.337,38.72,20.872,25.166,42.623Z" transform="translate(0 -70.423)" fill="#ffe3e2" stroke="#000" stroke-width="1.5"/>
    <path id="_손톱1" d="M108.71,450.3s31.015,13.24,34.8,26.476c.235,1.09,1.646,18.59-1.9,21.781" transform="translate(-55.162 -229.819)" fill="none" stroke="#000" stroke-width="1.5"/>
    <path id="_손톱2" d="M87.08,30.24l29.876,12.053s14.955,4.842,20.115-8.819" transform="translate(-44.1 -14.99)" fill="none" stroke="#000" stroke-width="1.5"/>
    <path id="_손톱3" d="M8.89,188.348l23.842-10.3s11.252-5.829,6.347-16.529" transform="translate(-4.112 -82.13)" fill="none" stroke="#000" stroke-width="1.5"/>
    <line id="선_8" data-name="선 8" x1="4.602" y1="7.377" transform="translate(64.673 106.218)" fill="none" stroke="#000" stroke-width="1.5"/>
    <line id="선_9" data-name="선 9" y1="7.861" x2="3.713" transform="translate(82.735 55.597)" fill="none" stroke="#000" stroke-width="1.5"/>
    <line id="선_10" data-name="선 10" y1="10.475" x2="4.949" transform="translate(135.912 82.332)" fill="none" stroke="#000" stroke-width="1.5"/>
    <line id="선_11" data-name="선 11" y1="6.972" x2="6.395" transform="translate(138.389 90.105)" fill="none" stroke="#000" stroke-width="1.5"/>
    <line id="선_12" data-name="선 12" y1="10.211" x2="3.117" transform="translate(120.756 115.105)" fill="none" stroke="#000" stroke-width="1.5"/>
    <line id="선_13" data-name="선 13" y1="6.488" x2="1.979" transform="translate(125.207 120.211)" fill="none" stroke="#000" stroke-width="1.5"/>
    <line id="선_14" data-name="선 14" y1="7.202" x2="2.199" transform="translate(180.563 160.714)" fill="none" stroke="#000" stroke-width="1.5"/>
    <line id="선_15" data-name="선 15" y1="12.576" x2="4.514" transform="translate(182.273 159.36)" fill="none" stroke="#000" stroke-width="1.5"/>
    <line id="선_16" data-name="선 16" y1="8.609" x2="20.188" transform="translate(182.224 237.014)" fill="none" stroke="#000" stroke-width="1.5"/>
    <line id="선_17" data-name="선 17" y1="6.948" x2="12.483" transform="translate(182.248 235.138)" fill="none" stroke="#000" stroke-width="1.5"/>
    <line id="선_18" data-name="선 18" y1="8.042" x2="7.128" transform="translate(122.315 220.481)" fill="none" stroke="#000" stroke-width="1.5"/>
    <line id="선_19" data-name="선 19" y1="10.802" x2="4.08" transform="translate(116.359 290.665)" fill="none" stroke="#000" stroke-width="1.5"/>
    <line id="선_20" data-name="선 20" y1="10.802" x2="4.08" transform="translate(120.771 293.709)" fill="none" stroke="#000" stroke-width="1.5"/>
  </g>
</svg>
