<svg xmlns="http://www.w3.org/2000/svg" width="706.36" height="706.36" viewBox="0 0 706.36 706.36">
  <g id="LP판_2019" transform="translate(0 -332.96)">
    <g id="그룹_120" data-name="그룹 120">
      <circle id="_원형대_" cx="353.18" cy="353.18" r="353.18" transform="translate(0 332.96)" fill="#1a171d"/>
      <circle id="_원형소_" cx="95.36" cy="95.36" r="95.36" transform="translate(257.82 590.78)" fill="#ffe3e2"/>
      <circle id="_원형줄무늬소_" cx="84.77" cy="84.77" r="84.77" transform="translate(268.41 601.37)" fill="#ffe3e2" stroke="#000" stroke-width="0.75"/>
    </g>
    <g id="그룹_121" data-name="그룹 121">
      <circle id="_핑크줄무늬안_" cx="115.29" cy="115.29" r="115.29" transform="translate(238.47 572.15)" fill="none" stroke="#ffe3e2" stroke-width="1"/>
      <circle id="타원_14" data-name="타원 14" cx="136.71" cy="136.71" r="136.71" transform="translate(217 550.6)" fill="none" stroke="#ffe3e2" stroke-width="1"/>
      <circle id="타원_15" data-name="타원 15" cx="158.14" cy="158.14" r="158.14" transform="translate(195.51 529.04)" fill="none" stroke="#ffe3e2" stroke-width="1"/>
      <circle id="타원_16" data-name="타원 16" cx="179.57" cy="179.57" r="179.57" transform="translate(174.02 507.48)" fill="none" stroke="#ffe3e2" stroke-width="1"/>
      <circle id="타원_17" data-name="타원 17" cx="200.99" cy="200.99" r="200.99" transform="translate(152.54 485.93)" fill="none" stroke="#ffe3e2" stroke-width="1"/>
      <circle id="타원_18" data-name="타원 18" cx="222.42" cy="222.42" r="222.42" transform="translate(131.05 464.37)" fill="none" stroke="#ffe3e2" stroke-width="1"/>
      <circle id="타원_19" data-name="타원 19" cx="243.84" cy="243.84" r="243.84" transform="translate(109.57 442.82)" fill="none" stroke="#ffe3e2" stroke-width="1"/>
      <circle id="타원_20" data-name="타원 20" cx="265.27" cy="265.27" r="265.27" transform="translate(88.08 421.26)" fill="none" stroke="#ffe3e2" stroke-width="1"/>
      <circle id="타원_21" data-name="타원 21" cx="286.7" cy="286.7" r="286.7" transform="translate(66.59 399.7)" fill="none" stroke="#ffe3e2" stroke-width="1"/>
      <circle id="타원_22" data-name="타원 22" cx="308.12" cy="308.12" r="308.12" transform="translate(45.11 378.15)" fill="none" stroke="#ffe3e2" stroke-width="1"/>
      <circle id="_핑크줄무늬밖_" cx="329.55" cy="329.55" r="329.55" transform="translate(23.63 356.59)" fill="none" stroke="#ffe3e2" stroke-width="1"/>
    </g>
    <g id="그룹_124" data-name="그룹 124">
      <g id="그룹">
        <text id="_2" data-name="2" transform="translate(331.33 642.34)" font-size="16.63" font-family="Futura PT" font-weight="800" font-style="oblique"><tspan x="0" y="0">2</tspan></text>
        <text id="_0" data-name="0" transform="translate(343.09 642.34)" font-size="16.63" font-family="Futura PT" font-weight="800" font-style="oblique" letter-spacing="-0.109em"><tspan x="0" y="0">0</tspan></text>
        <text id="_1" data-name="1" transform="translate(352.98 642.34)" font-size="16.63" font-family="Futura PT" font-weight="800" font-style="oblique" letter-spacing="-0.09em"><tspan x="0" y="0">1</tspan></text>
        <text id="_9" data-name="9" transform="translate(363.27 642.34)" font-size="16.63" font-family="Futura PT" font-weight="800" font-style="oblique"><tspan x="0" y="0">9</tspan></text>
        <text id="_1-2" data-name="1" transform="translate(304.17 655.35)" font-size="14.46" font-family="Futura PT" font-weight="800" font-style="oblique" letter-spacing="-0.1em"><tspan x="0" y="0">1</tspan></text>
        <text id="st_Exhib" data-name="st Exhib" transform="translate(312.95 655.35)" font-size="14.46" font-family="Futura PT" font-weight="800" font-style="oblique"><tspan x="0" y="0">st Exhib</tspan></text>
        <text id="i" transform="translate(368.57 655.35)" font-size="14.46" font-family="Futura PT" font-weight="800" font-style="oblique" letter-spacing="0.019em"><tspan x="0" y="0">i</tspan></text>
        <text id="t" transform="translate(373.73 655.35)" font-size="14.46" font-family="Futura PT" font-weight="800" font-style="oblique" letter-spacing="0.01em"><tspan x="0" y="0">t</tspan></text>
        <text id="ion" transform="translate(379.02 655.35)" font-size="14.46" font-family="Futura PT" font-weight="800" font-style="oblique"><tspan x="0" y="0">ion</tspan></text>
      </g>
      <g id="그룹_123" data-name="그룹 123">
        <text id="Dot" transform="translate(312.84 687.44)" fill="#f7594a" font-size="39.73" font-family="Gill Sans Nova" font-weight="800"><tspan x="0" y="0" letter-spacing="-0.02em">D</tspan><tspan y="0" letter-spacing="-0.01em">o</tspan><tspan y="0">t</tspan></text>
        <g id="그룹_122" data-name="그룹 122">
          <path id="패스_43" data-name="패스 43" d="M321.73,699.31h12.09v5.76H321.73Z"/>
          <path id="패스_44" data-name="패스 44" d="M339.58,694.35H332.8v-5.44h21.16v5.44h-6.78v16.26h-7.6Z"/>
          <path id="패스_45" data-name="패스 45" d="M361.84,693.52c6.52,0,9.89,3.98,9.89,8.68,0,4.45-3.15,8.69-9.83,8.69s-9.96-4.2-9.96-8.69c0-4.74,3.37-8.68,9.89-8.68Zm0,11.93a3.25,3.25,0,1,0-3.28-3.25A3.121,3.121,0,0,0,361.84,705.45Z"/>
          <path id="패스_46" data-name="패스 46" d="M373.77,699.31h12.09v5.76H373.77Z"/>
          <path id="패스_47" data-name="패스 47" d="M316.37,710.88h13.71c7.59,0,14.58,3.93,14.58,13.59,0,8.11-5.24,13.51-14.46,13.51H316.37v-27.1Zm12.08,20.66c4.37,0,6.72-2.19,6.72-7.07,0-4.45-2.42-7.15-6.72-7.15h-2.58v14.23h2.58Z" fill="#0080de"/>
          <path id="패스_48" data-name="패스 48" d="M359.36,716.64c8.15,0,12.36,4.97,12.36,10.85,0,5.56-3.93,10.85-12.28,10.85S347,733.09,347,727.49c0-5.92,4.21-10.85,12.36-10.85Zm0,14.9a4.05,4.05,0,1,0-4.09-4.05A3.89,3.89,0,0,0,359.36,731.54Z" fill="#0080de"/>
          <path id="패스_49" data-name="패스 49" d="M376.8,723.67h-3.66v-3.38l10.05-9.58h1.87v7.71h6.64v5.24h-6.64v4.93c0,1.83.72,2.7,2.46,2.7a8.58,8.58,0,0,0,4.65-1.63v6.32a11.513,11.513,0,0,1-7.23,2.34c-5.44,0-8.15-2.42-8.15-7.55v-7.11Z" fill="#0080de"/>
        </g>
      </g>
    </g>
  </g>
</svg>
