<svg id="스위치" xmlns="http://www.w3.org/2000/svg" width="97" height="140.768" viewBox="0 0 97 140.768">
  <g id="Group_575" transform="translate(1 1)">
    <rect id="Rectangle_190" width="89.995" height="138.768" fill="#ffe3e2" stroke="#000" stroke-width="2"/>
    <rect id="Rectangle_191" width="89.995" height="138.768" transform="translate(5.004)" fill="#ffe3e2" stroke="#000" stroke-width="2"/>
    <rect id="Rectangle_269" width="37.83" height="93.906" transform="translate(30.451 22.325)" stroke="#000" stroke-width="7"/>
    <rect id="Rectangle_269-2" width="36.473" height="92.455" transform="translate(31.129 23.156)" fill="none" stroke="#ffe3e2" stroke-width="4"/>
    <rect id="Rectangle_269-3" width="36.473" height="92.455" transform="translate(31.129 23.156)" fill="#f7594a"/>
    <path id="패스_68" data-name="패스 68" d="M37.7,28.3l5.089,22.9L37.7,74.1Z" transform="translate(-6.571 -5.144)" fill="#d64b3e"/>
    <path id="패스_69" data-name="패스 69" d="M53.34,100.314V54.51l5.089,16.116" transform="translate(-8.945 -9.122)" fill="#f7594a"/>
  </g>
  <path id="패스_70" data-name="패스 70" d="M80.7,28.51l5.089,22.9L80.7,74.314Z" transform="translate(-12.097 -4.176)" fill="#d64b3e"/>
  <path id="패스_71" data-name="패스 71" d="M37.7,28.3H74.173l5.089,23.08L42.789,51.2Z" transform="translate(-5.571 -4.144)" fill="#f7594a"/>
  <path id="패스_72" data-name="패스 72" d="M37.7,78.2l36.473.178,5.089-22.9L42.789,55.3Z" transform="translate(-5.571 -8.242)" fill="#ce453e"/>
</svg>
